<svg xmlns="http://www.w3.org/2000/svg" xmlns:xlink="http://www.w3.org/1999/xlink" viewBox="0 0 181.6 211.24"><defs><style>.cls-1,.cls-10{fill:none;}.cls-2{fill:#1b1464;}.cls-3{fill:url(#Безымянный_градиент_249);}.cls-4{fill:url(#Безымянный_градиент_249-2);}.cls-5{fill:url(#Безымянный_градиент_253);}.cls-6{fill:url(#Безымянный_градиент_253-2);}.cls-7{fill:url(#Безымянный_градиент_253-3);}.cls-8{fill:url(#Безымянный_градиент_258);}.cls-9{fill:#020000;opacity:0.2;}.cls-10{stroke:#f1ff3e;stroke-miterlimit:10;}.cls-11{fill:#f1ff3e;}</style><linearGradient id="Безымянный_градиент_249" x1="582.96" y1="350.8" x2="625.9" y2="350.8" gradientUnits="userSpaceOnUse"><stop offset="0.1" stop-color="#dc0843"/><stop offset="0.8" stop-color="#920b73"/></linearGradient><linearGradient id="Безымянный_градиент_249-2" x1="595.39" y1="338.6" x2="638.33" y2="338.6" xlink:href="#Безымянный_градиент_249"/><linearGradient id="Безымянный_градиент_253" x1="1757.05" y1="338.6" x2="1800" y2="338.6" gradientTransform="matrix(-1, 0, 0, 1, 2476, 0)" gradientUnits="userSpaceOnUse"><stop offset="0.18" stop-color="#920b73"/><stop offset="0.73" stop-color="#dc0843"/></linearGradient><linearGradient id="Безымянный_градиент_253-2" x1="1745" y1="350.66" x2="1787.94" y2="350.66" xlink:href="#Безымянный_градиент_253"/><linearGradient id="Безымянный_градиент_253-3" x1="612.72" y1="332.72" x2="651.14" y2="332.72" gradientTransform="matrix(1, 0, 0, 1, 0, 0)" xlink:href="#Безымянный_градиент_253"/><linearGradient id="Безымянный_градиент_258" x1="665.83" y1="332.58" x2="704.25" y2="332.58" gradientUnits="userSpaceOnUse"><stop offset="0.16" stop-color="#dc0843"/><stop offset="0.87" stop-color="#920b73"/></linearGradient></defs><g id="Слой_1" data-name="Слой 1"><path class="cls-1" d="M588.81,251.63" transform="translate(-567.4 -264.96)"/><path class="cls-2" d="M647.69,475.58c-1.46.31-2.12-5.13-7.46-11.23-5.2-5.94-11.46-8.65-17.4-11.22-5.18-2.24-10.21-4.63-17.4-6.23-5.74-1.28-8.41-1.12-11.18-3.74-1.17-1.11-.73-1.17-6.22-8.73a35.67,35.67,0,0,1-2.48-3.74c-.57-1-.72-1.4-2.49-5-.63-1.28-.95-1.92-1.24-2.49-1.1-2.14-2-3.64-2.71-4.95-1.18-2.08-2.45-4.12-3.51-6.27-1.89-3.84-3.75-10.46-7.45-23.69-.47-1.68-1.42-5.2,0-6.24l0,0a2.81,2.81,0,0,1,2.45,0c4.13,1.49,8.7,8.73,8.7,8.73,1.8,2.84,3.35,5.59,5,8.73,3.12,6,2.87,6.39,5,10a64.17,64.17,0,0,0,6.21,8.73c3.49,4.3,5.23,5.58,6.21,6.23a31.34,31.34,0,0,0,5,2.5c4,1.75,4.67,1.53,5,1.25.59-.57.18-1.89,0-2.5a11,11,0,0,0-3.73-5c-3-2.68-4.93-5.11-8.7-10-1.77-2.29-.68-1.27-2.49-3.74a4.45,4.45,0,0,1-1.24-2.5,2.91,2.91,0,0,1,1.24-2.49c1.22-.71,2.84.13,5,1.25a20.4,20.4,0,0,1,3.73,2.49c1.23.9,2.26,1.57,3,2,.87.55,1,.57,1.82,1.13.61.39,1.39.91,2.67,1.84,1.86,1.34,4.13,3.05,12.43,10,8.52,7.11,9.76,8.35,11.19,10a47.27,47.27,0,0,1,6.21,8.73,49.62,49.62,0,0,1,5,15C649.35,463.28,649.83,475.12,647.69,475.58Z" transform="translate(-567.4 -264.96)"/><path class="cls-2" d="M668.7,476.19c1.47.31,2.13-5.12,7.46-11.22s11.47-8.66,17.4-11.22c5.19-2.25,10.21-4.64,17.4-6.24,5.75-1.27,8.42-1.12,11.19-3.74,1.17-1.1.73-1.16,6.21-8.73a32.39,32.39,0,0,0,2.49-3.74c.57-1,.71-1.4,2.49-5,.63-1.28.94-1.92,1.24-2.5,1.09-2.13,1.95-3.63,2.7-4.95,1.19-2.08,2.45-4.12,3.51-6.27,1.9-3.84,3.75-10.46,7.46-23.69.47-1.68,1.42-5.19,0-6.23l0,0a2.83,2.83,0,0,0-2.46,0c-4.12,1.49-8.7,8.72-8.7,8.72-1.79,2.84-3.34,5.6-5,8.73-3.11,6-2.86,6.39-5,10a66.45,66.45,0,0,1-6.21,8.72c-3.49,4.3-5.23,5.58-6.22,6.24a31.69,31.69,0,0,1-5,2.49c-4,1.76-4.67,1.54-5,1.25-.59-.56-.19-1.88,0-2.49a10.78,10.78,0,0,1,3.73-5c3-2.69,4.93-5.12,8.7-10,1.77-2.28.68-1.26,2.48-3.74a4.48,4.48,0,0,0,1.25-2.49,2.87,2.87,0,0,0-1.25-2.49c-1.22-.72-2.84.13-5,1.24a20.72,20.72,0,0,0-3.73,2.5c-1.23.89-2.25,1.56-3,2-.87.55-1,.58-1.82,1.13-.61.39-1.39.92-2.67,1.84-1.87,1.35-4.14,3-12.43,10-8.52,7.11-9.76,8.34-11.19,10a47.15,47.15,0,0,0-6.21,8.73,49.33,49.33,0,0,0-5,15C667,463.9,666.57,475.73,668.7,476.19Z" transform="translate(-567.4 -264.96)"/><path class="cls-3" d="M583,292.6l8.29,4.15v73.07A80.13,80.13,0,0,1,625.9,409a85.45,85.45,0,0,0-12.43-11.3,93.67,93.67,0,0,0-12.05-7.53A130.58,130.58,0,0,0,583,381.88Z" transform="translate(-567.4 -264.96)"/><path class="cls-4" d="M595.39,280.4l8.29,4.15v73.08a80,80,0,0,1,17,12.8,80.87,80.87,0,0,1,17.7,26.37,85.45,85.45,0,0,0-12.43-11.3,93.67,93.67,0,0,0-12-7.53,132.91,132.91,0,0,0-18.46-8.29Z" transform="translate(-567.4 -264.96)"/><path class="cls-5" d="M719,280.4l-8.29,4.15v73.08a80,80,0,0,0-16.95,12.8A81.1,81.1,0,0,0,676,396.8a86,86,0,0,1,12.43-11.3A94.38,94.38,0,0,1,700.49,378,131.83,131.83,0,0,1,719,369.68Z" transform="translate(-567.4 -264.96)"/><path class="cls-6" d="M731,292.46l-8.29,4.14v73.08a80.13,80.13,0,0,0-34.65,39.18,84.88,84.88,0,0,1,12.43-11.3,93.9,93.9,0,0,1,12-7.54A132.91,132.91,0,0,1,731,381.73Z" transform="translate(-567.4 -264.96)"/><path class="cls-7" d="M612.72,265.1v88.53a75.45,75.45,0,0,1,8.66,6c1.54,1.25,7.75,6.35,15.82,17.33a143.45,143.45,0,0,1,13.94,23.36V361.91l-18.08-7.15.38-17.71-16.58-6.4,32.77-13.56A131.32,131.32,0,0,0,636.83,290c-7.23-11.59-13.05-16.74-15.07-18.45A64.08,64.08,0,0,0,612.72,265.1Z" transform="translate(-567.4 -264.96)"/><path class="cls-8" d="M704.25,265v88.52a75.75,75.75,0,0,0-8.66,6c-1.54,1.24-7.75,6.34-15.82,17.33a144.45,144.45,0,0,0-13.94,23.35V361.77l18.08-7.16-.37-17.7,16.57-6.41-32.77-13.56a130.63,130.63,0,0,1,12.81-27.12c7.22-11.59,13-16.74,15.06-18.46A64.45,64.45,0,0,1,704.25,265Z" transform="translate(-567.4 -264.96)"/><polygon class="cls-2" points="62.65 65.31 92.78 77.37 120.66 65.31 92.78 52.88 62.65 65.31"/><polygon class="cls-2" points="73.44 73.09 73.44 88.16 91.9 96.07 110.74 88.16 110.74 73.09 92.28 80.63 73.44 73.09"/><ellipse class="cls-9" cx="665.52" cy="329.71" rx="0.57" ry="0.38" transform="translate(-617.33 -134.61) rotate(-10.78)"/><path class="cls-10" d="M665.55,329.71c5.28,1.21,6.9,3,7.39,4.4.36,1.05.12,1.94.39,7.68,0,.47,0,.85.06,1.1" transform="translate(-567.4 -264.96)"/><polygon class="cls-11" points="108.01 80.9 103.06 80.17 106.09 76.75 108.01 80.9"/><line class="cls-1" x1="93.89" y1="80.87" x2="92.01" y2="80.87"/><line class="cls-1" x1="89.84" y1="80.87" x2="88.62" y2="80.87"/></g></svg>